<svg width="32" height="31" viewBox="0 0 32 31" fill="none" xmlns="http://www.w3.org/2000/svg">
<path d="M13.6224 1.92016C14.3707 -0.383116 17.6293 -0.38311 18.3776 1.92017L20.378 8.07671C20.7127 9.10676 21.6726 9.80416 22.7557 9.80416H29.229C31.6509 9.80416 32.6578 12.9032 30.6985 14.3267L25.4614 18.1317C24.5852 18.7683 24.2186 19.8967 24.5533 20.9267L26.5536 27.0833C27.302 29.3866 24.6658 31.3019 22.7065 29.8784L17.4695 26.0734C16.5932 25.4368 15.4068 25.4368 14.5305 26.0734L9.29347 29.8784C7.33418 31.3019 4.69799 29.3866 5.44637 27.0833L7.44675 20.9267C7.78143 19.8967 7.41479 18.7683 6.53857 18.1317L1.3015 14.3267C-0.657787 12.9032 0.349156 9.80416 2.77096 9.80416H9.24434C10.3274 9.80416 11.2873 9.10676 11.622 8.07671L13.6224 1.92016Z" fill="#006AFF"/>
</svg>
