<svg width="18" height="17" viewBox="0 0 18 17" fill="none" xmlns="http://www.w3.org/2000/svg">
<path d="M7.57341 1.33003C8.02244 -0.0519352 9.97756 -0.0519373 10.4266 1.33003L11.3574 4.19477C11.5582 4.81281 12.1341 5.23125 12.784 5.23125H15.7962C17.2492 5.23125 17.8534 7.09067 16.6778 7.94477L14.2409 9.71528C13.7152 10.0972 13.4952 10.7743 13.696 11.3923L14.6268 14.2571C15.0759 15.639 13.4941 16.7882 12.3186 15.9341L9.88168 14.1636C9.35595 13.7817 8.64405 13.7817 8.11832 14.1636L5.68143 15.9341C4.50586 16.7882 2.92413 15.639 3.37316 14.2571L4.30397 11.3923C4.50479 10.7743 4.2848 10.0972 3.75907 9.71528L1.32217 7.94478C0.1466 7.09067 0.750763 5.23125 2.20385 5.23125H5.21602C5.86586 5.23125 6.44179 4.81281 6.6426 4.19477L7.57341 1.33003Z" fill="#006AFF"/>
</svg>
