<svg width="20" height="21" viewBox="0 0 20 21" fill="none" xmlns="http://www.w3.org/2000/svg">
<path d="M10 0.439453C4.47917 0.439453 0 4.91862 0 10.4395C0 12.3145 0.520835 14.0853 1.45833 15.5853C3.1875 18.4811 6.35417 20.4395 10 20.4395C13.6458 20.4395 16.8333 18.4811 18.5417 15.5853C19.4583 14.0853 20 12.3145 20 10.4395C20 4.91862 15.5208 0.439453 10 0.439453ZM14.9583 9.12695L9.625 14.0436C9.33333 14.3145 8.9375 14.4603 8.5625 14.4603C8.16667 14.4603 7.77083 14.3145 7.45833 14.002L5 11.5436C4.39583 10.9395 4.39583 9.93945 5 9.33529C5.60417 8.73112 6.60417 8.73112 7.20833 9.33529L8.60417 10.7311L12.8333 6.81445C13.4583 6.23112 14.4583 6.27279 15.0417 6.89779C15.625 7.54362 15.5833 8.54362 14.9583 9.12695Z" fill="#7EE081"/>
</svg>
